<svg xmlns="http://www.w3.org/2000/svg" width="20" height="20" viewBox="0 0 20 20">
  <g id="bullet" transform="translate(0 20) rotate(-90)">
    <path id="Path_185" data-name="Path 185" d="M0,0H20V20H0Z" fill="none"/>
    <path id="Path_186" data-name="Path 186" d="M10.238,5.827V9.62H8.3a.408.408,0,0,0-.3.7l2.779,2.719a.425.425,0,0,0,.6,0l2.779-2.719a.412.412,0,0,0-.3-.7H11.927V5.827a.845.845,0,0,0-1.689,0ZM6.943,12.439a.824.824,0,0,0-.836.951,5.092,5.092,0,0,0,9.95,0,.824.824,0,0,0-.836-.951.844.844,0,0,0-.828.686,3.4,3.4,0,0,1-6.614,0,.853.853,0,0,0-.836-.686Z" transform="translate(-1.082 -0.777)" fill="#023798"/>
  </g>
</svg>
