<svg id="email_black_24dp_1_" data-name="email_black_24dp (1)" xmlns="http://www.w3.org/2000/svg" width="22.582" height="22.582" viewBox="0 0 22.582 22.582">
  <path id="Path_173" data-name="Path 173" d="M0,0H22.582V22.582H0Z" fill="none"/>
  <path id="Path_174" data-name="Path 174" d="M18.937,4H3.882A1.879,1.879,0,0,0,2.009,5.882L2,17.173a1.887,1.887,0,0,0,1.882,1.882H18.937a1.887,1.887,0,0,0,1.882-1.882V5.882A1.887,1.887,0,0,0,18.937,4ZM18.56,8l-6.652,4.159a.952.952,0,0,1-1,0L4.258,8a.8.8,0,1,1,.847-1.355l6.3,3.942,6.3-3.942A.8.8,0,1,1,18.56,8Z" transform="translate(-0.118 -0.236)" fill="#023798"/>
</svg>
