<svg xmlns="http://www.w3.org/2000/svg" width="18.567" height="18.601" viewBox="0 0 18.567 18.601">
  <path id="phone" d="M19.177,14.8v2.574a1.716,1.716,0,0,1-1.871,1.716,16.981,16.981,0,0,1-7.4-2.634A16.732,16.732,0,0,1,4.753,11.31,16.981,16.981,0,0,1,2.119,3.871,1.716,1.716,0,0,1,3.826,2H6.4A1.716,1.716,0,0,1,8.117,3.476a11.017,11.017,0,0,0,.6,2.411A1.716,1.716,0,0,1,8.331,7.7l-1.09,1.09a13.729,13.729,0,0,0,5.148,5.148l1.09-1.09a1.716,1.716,0,0,1,1.81-.386,11.017,11.017,0,0,0,2.411.6A1.716,1.716,0,0,1,19.177,14.8Z" transform="translate(-1.361 -1.25)" fill="none" stroke="#fff" stroke-linecap="round" stroke-linejoin="round" stroke-width="1.5"/>
</svg>
