<svg id="phone_black_24dp" xmlns="http://www.w3.org/2000/svg" width="22.582" height="22.582" viewBox="0 0 22.582 22.582">
  <path id="Path_175" data-name="Path 175" d="M0,0H22.582V22.582H0Z" fill="none"/>
  <path id="Path_176" data-name="Path 176" d="M18.272,14.536l-2.39-.273a1.873,1.873,0,0,0-1.543.536l-1.731,1.731a14.156,14.156,0,0,1-6.2-6.2L8.148,8.59a1.873,1.873,0,0,0,.536-1.543L8.412,4.675A1.883,1.883,0,0,0,6.539,3.01H4.912A1.867,1.867,0,0,0,3.03,4.958,15.988,15.988,0,0,0,17.981,19.909a1.867,1.867,0,0,0,1.948-1.882V16.4A1.865,1.865,0,0,0,18.272,14.536Z" transform="translate(-0.179 -0.178)" fill="#023798"/>
</svg>
